<svg width="198" height="50" viewBox="0 0 198 50" fill="none" xmlns="http://www.w3.org/2000/svg">
<path fill-rule="evenodd" clip-rule="evenodd" d="M84.0545 24.2588C84.3591 24.2588 84.6059 24.506 84.6059 24.8106V42.8096C84.6059 42.9129 84.5884 43.1387 84.4269 43.2276C84.4269 43.2276 80.5099 45.9867 74.0529 45.9867C66.2544 45.9867 57 43.5852 57 27.4687C57 11.3527 65.0832 8 72.9629 8C79.8033 8 82.5109 9.51504 82.9548 9.83177C83.117 9.94839 83.1654 10.12 83.1654 10.2627L81.8484 15.8387C81.8484 16.1432 81.5309 16.4849 81.1873 16.3799C80.0945 16.0419 78.377 15.3399 74.3907 15.3399C69.7853 15.3399 64.8796 16.7032 64.8796 27.0648C64.8796 37.4243 69.5906 38.6563 72.9629 38.6563C75.8215 38.6563 76.8553 38.3041 76.8553 38.3041V31.1339H72.2508C71.9462 31.1339 71.6989 30.8862 71.6989 30.5817V24.8106C71.6989 24.506 71.9462 24.2588 72.2508 24.2588H84.0545ZM144.886 9.93107V44.7091C144.885 45.0156 144.641 45.2652 144.337 45.2652H137.676C137.372 45.2652 137.126 45.0156 137.126 44.7091L137.143 29.8332H126.783V44.7091C126.783 45.0156 126.539 45.2652 126.235 45.2652H119.589C119.287 45.2652 119.04 45.0156 119.04 44.7091V9.93107C119.04 9.62417 119.287 9.37614 119.589 9.37614H126.235C126.539 9.37614 126.783 9.62417 126.783 9.93107V22.7752H137.143L137.142 9.93107C137.142 9.62417 137.388 9.37614 137.692 9.37614H144.338C144.642 9.37614 144.886 9.62417 144.886 9.93107ZM96.5961 14.4947C96.5961 16.8854 94.6774 18.8248 92.3102 18.8248C89.9453 18.8248 88.0255 16.8854 88.0255 14.4947C88.0255 12.1018 89.9453 10.1679 92.3102 10.1679C94.6774 10.1679 96.5961 12.1018 96.5961 14.4947ZM96.1208 21.3191V44.3726C96.1208 44.9385 95.9602 45.2601 95.3054 45.2601H89.3363C88.7911 45.2601 88.3699 45.0589 88.3699 44.3835V21.3834C88.3699 21.0785 88.6417 20.7653 88.9459 20.7653H95.571C95.8752 20.7653 96.1208 21.0145 96.1208 21.3191ZM170.145 20.8175C170.448 20.8175 170.695 21.0668 170.695 21.3737L170.697 44.7193C170.697 45.025 170.45 45.2746 170.147 45.2746L165.89 45.2933C165.676 45.2933 165.48 45.142 165.404 44.9923C165.328 44.8421 165.162 43.5754 165.162 43.5754C165.162 43.5754 161.655 45.9789 157.303 45.9789C152.001 45.9789 148.146 44.2868 148.146 37.3704V21.3737C148.146 21.0668 148.394 20.8175 148.696 20.8175H155.389C155.692 20.8175 155.938 21.0668 155.938 21.3737V36.2445C155.938 38.5731 156.568 39.6522 158.947 39.6522C161.325 39.6522 163 38.426 163 38.426V21.3737C163 21.0668 163.247 20.8175 163.55 20.8175H170.145ZM188.17 20.0363C191.919 20.0363 197.467 21.4371 197.467 32.157C197.467 42.8768 193.993 45.9491 187.936 45.9491C182.776 45.9491 180.052 43.3667 180.052 43.3667C180.052 43.3667 179.886 44.7831 179.771 44.9699C179.654 45.1579 179.497 45.2655 179.288 45.2655H174.664C174.36 45.2655 174.114 45.0159 174.114 44.709V9.93098C174.114 9.62408 174.36 9.37605 174.664 9.37605H181.329C181.631 9.37605 181.877 9.62408 181.877 9.93098V21.7077C181.877 21.7077 184.425 20.0363 188.17 20.0363ZM185.569 39.631C188.77 39.7277 189.802 38.5484 189.802 32.5742C189.802 26.9086 187.513 26.1913 185.139 26.4039C183.26 26.5716 181.73 27.5099 181.73 27.5099V38.5235C181.73 38.5235 183.282 39.5612 185.569 39.631ZM115.222 20.7621C115.526 20.7621 115.772 21.0094 115.772 21.3163V26.6735C115.772 26.9808 115.526 27.2292 115.222 27.2292H110.236C110.236 27.2292 110.237 35.5343 110.237 37.0073C110.237 38.481 111.066 39.6194 113.516 39.6194C114.28 39.6194 115.024 39.5012 115.315 39.5012C115.606 39.5012 115.866 39.7497 115.866 40.0566L115.86 44.7618C115.86 44.9832 115.745 45.1876 115.548 45.2601C115.221 45.3806 113.244 45.9114 111.591 45.9114C107.974 45.9114 102.613 45.1607 102.613 37.5185V27.2292H99.1296C98.8258 27.2292 98.5801 26.9808 98.5801 26.6735V22.3965C98.5801 22.1442 98.749 21.9328 98.9783 21.8665C99.2084 21.7998 102.613 20.9781 102.613 20.9781V14.1722C102.613 13.9183 102.755 13.8016 103.019 13.8016H109.812C110.101 13.8016 110.23 13.9265 110.23 14.1757L110.237 20.7621H115.222Z" fill="white"/>
<path fill-rule="evenodd" clip-rule="evenodd" d="M25.5211 0C11.4086 0 0 11.4583 0 25.6337C0 36.965 7.30988 46.5566 17.4506 49.9514C18.7185 50.2066 19.1829 49.3998 19.1829 48.7212C19.1829 48.1269 19.1411 46.0899 19.1411 43.9675C12.0417 45.4956 10.5634 40.9118 10.5634 40.9118C9.42244 37.941 7.73197 37.1774 7.73197 37.1774C5.40836 35.6071 7.90123 35.6071 7.90123 35.6071C10.4787 35.7769 11.8312 38.2384 11.8312 38.2384C14.1125 42.1425 17.7886 41.0394 19.2675 40.3602C19.4786 38.705 20.1551 37.5592 20.8733 36.9228C15.2111 36.3285 9.25371 34.1217 9.25371 24.2754C9.25371 21.4744 10.2672 19.1827 11.873 17.4004C11.6196 16.764 10.7321 14.1322 12.1269 10.6099C12.1269 10.6099 14.2818 9.93069 19.1406 13.2411C21.2208 12.68 23.3661 12.3945 25.5211 12.3921C27.676 12.3921 29.8727 12.6895 31.9011 13.2411C36.7604 9.93069 38.9153 10.6099 38.9153 10.6099C40.3101 14.1322 39.422 16.764 39.1687 17.4004C40.8168 19.1827 41.7885 21.4744 41.7885 24.2754C41.7885 34.1217 35.8311 36.2858 30.1265 36.9228C31.0564 37.729 31.8588 39.2566 31.8588 41.6759C31.8588 45.1134 31.817 47.8722 31.817 48.7206C31.817 49.3998 32.2819 50.2066 33.5493 49.9519C43.69 46.5561 50.9999 36.965 50.9999 25.6337C51.0417 11.4583 39.5913 0 25.5211 0Z" fill="white"/>
</svg>
