<svg width="198" height="51" viewBox="0 0 198 51" fill="none" xmlns="http://www.w3.org/2000/svg">
<path d="M63.2383 39.3918L65.7065 33.6593C68.3738 35.6497 71.917 36.6848 75.4203 36.6848C78.008 36.6848 79.6402 35.6895 79.6402 34.1768C79.6004 29.957 64.1539 33.2612 64.0345 22.6719C63.9947 17.2977 68.7719 13.1576 75.5397 13.1576C79.5606 13.1576 83.5814 14.1528 86.4478 16.4219L84.1388 22.2739C81.5113 20.6019 78.2468 19.4076 75.1416 19.4076C73.0317 19.4076 71.6383 20.4028 71.6383 21.6767C71.6781 25.8169 87.244 23.5477 87.4032 33.6593C87.4032 39.1529 82.7454 43.0144 76.0572 43.0144C71.1606 43.0144 66.662 41.86 63.2383 39.3918Z" fill="white"/>
<path d="M157.948 31.5892C156.713 33.7389 154.404 35.2118 151.737 35.2118C147.796 35.2118 144.611 32.0271 144.611 28.086C144.611 24.1449 147.796 20.9601 151.737 20.9601C154.404 20.9601 156.713 22.4331 157.948 24.5828L164.755 20.8009C162.207 16.2627 157.311 13.1576 151.737 13.1576C143.496 13.1576 136.808 19.8455 136.808 28.086C136.808 36.3265 143.496 43.0144 151.737 43.0144C157.35 43.0144 162.207 39.9491 164.755 35.3711L157.948 31.5892Z" fill="white"/>
<path d="M90.8302 0.776367H99.3497V42.4566H90.8302V0.776367Z" fill="white"/>
<path d="M168.098 0.776367V42.4566H176.618V29.9565L186.729 42.4566H197.637L184.779 27.6077L196.682 13.7542H186.252L176.618 25.259V0.776367H168.098Z" fill="white"/>
<path d="M124.666 31.6688C123.432 33.6991 120.884 35.2118 118.017 35.2118C114.076 35.2118 110.891 32.0271 110.891 28.086C110.891 24.1449 114.076 20.9601 118.017 20.9601C120.884 20.9601 123.432 22.5525 124.666 24.6226V31.6688ZM124.666 13.7547V17.1385C123.272 14.7897 119.809 13.1576 116.186 13.1576C108.702 13.1576 102.81 19.7659 102.81 28.0462C102.81 36.3265 108.702 43.0144 116.186 43.0144C119.809 43.0144 123.272 41.3822 124.666 39.0335V42.4173H133.185V13.7547H124.666Z" fill="white"/>
<path d="M10.5128 31.6217C10.5128 34.5149 8.14949 36.8784 5.25642 36.8784C2.36335 36.8784 0 34.5149 0 31.6217C0 28.7285 2.36335 26.3651 5.25642 26.3651H10.5128V31.6217Z" fill="#E01E5A"/>
<path d="M13.1602 31.6218C13.1602 28.7286 15.5235 26.3651 18.4166 26.3651C21.3096 26.3651 23.673 28.7286 23.673 31.6218V44.7839C23.673 47.6771 21.3096 50.0405 18.4166 50.0405C15.5235 50.0405 13.1602 47.6771 13.1602 44.7839V31.6218Z" fill="#E01E5A"/>
<path d="M18.4166 10.5133C15.5235 10.5133 13.1602 8.14988 13.1602 5.25667C13.1602 2.36346 15.5235 0 18.4166 0C21.3096 0 23.673 2.36346 23.673 5.25667V10.5133H18.4166Z" fill="#36C5F0"/>
<path d="M18.4179 13.162C21.3109 13.162 23.6743 15.5255 23.6743 18.4187C23.6743 21.3119 21.3109 23.6754 18.4179 23.6754H5.25642C2.36335 23.6754 0 21.3119 0 18.4187C0 15.5255 2.36335 13.162 5.25642 13.162H18.4179Z" fill="#36C5F0"/>
<path d="M39.5259 18.4186C39.5259 15.5254 41.8892 13.162 44.7823 13.162C47.6754 13.162 50.0387 15.5254 50.0387 18.4186C50.0387 21.3118 47.6754 23.6753 44.7823 23.6753H39.5259V18.4186Z" fill="#2EB67D"/>
<path d="M36.8786 18.4187C36.8786 21.3119 34.5152 23.6754 31.6222 23.6754C28.7291 23.6754 26.3657 21.3119 26.3657 18.4187V5.25667C26.3657 2.36346 28.7291 0 31.6222 0C34.5152 0 36.8786 2.36346 36.8786 5.25667V18.4187Z" fill="#2EB67D"/>
<path d="M31.6222 39.5273C34.5152 39.5273 36.8786 41.8907 36.8786 44.7839C36.8786 47.6772 34.5152 50.0406 31.6222 50.0406C28.7291 50.0406 26.3657 47.6772 26.3657 44.7839V39.5273H31.6222Z" fill="#ECB22E"/>
<path d="M31.6222 36.8786C28.7291 36.8786 26.3657 34.5151 26.3657 31.6219C26.3657 28.7287 28.7291 26.3652 31.6222 26.3652H44.7836C47.6767 26.3652 50.04 28.7287 50.04 31.6219C50.04 34.5151 47.6767 36.8786 44.7836 36.8786H31.6222Z" fill="#ECB22E"/>
</svg>
