<svg width="200" height="50" viewBox="0 0 200 50" fill="none" xmlns="http://www.w3.org/2000/svg">
<path d="M40.9092 38.273C40.9092 39.7296 39.728 40.9103 38.2724 40.9103H11.731C10.2749 40.9103 9.09421 39.7296 9.09421 38.273V11.7308C9.09421 10.2741 10.2749 9.09338 11.731 9.09338H38.2724C39.728 9.09338 40.9092 10.2741 40.9092 11.7308V38.273ZM41.6444 0H8.35516C3.74086 0 0 3.74003 0 8.35516V41.6433C0 46.2576 3.74086 49.9999 8.35516 49.9999H41.6444C46.259 49.9999 50.001 46.2576 50.001 41.6433V8.35516C50.001 3.74003 46.259 0 41.6444 0Z" fill="white"/>
<path d="M19.694 31.7848C18.8549 31.7848 18.1813 31.104 18.1813 30.2644V19.6695C18.1813 18.8285 18.8549 18.1477 19.694 18.1477H30.3048C31.1417 18.1477 31.8178 18.8285 31.8178 19.6695V30.2644C31.8178 31.104 31.1417 31.7848 30.3048 31.7848H19.694Z" fill="white"/>
<path d="M63.2549 31.0626H68.7141C68.987 34.1562 71.0796 36.5671 75.3105 36.5671C79.0863 36.5671 81.4065 34.702 81.4065 31.8813C81.4065 29.2429 79.5868 28.0599 76.3112 27.2868L72.0806 26.3768C67.4858 25.3759 64.0283 22.4188 64.0283 17.5968C64.0283 12.2739 68.7594 8.63448 74.901 8.63448C81.4065 8.63448 85.5918 12.0466 85.9559 17.0963H80.6787C80.0419 14.7307 78.0856 13.3202 74.901 13.3202C71.5345 13.3202 69.2145 15.14 69.2145 17.4602C69.2145 19.7804 71.2162 21.1906 74.6737 21.964L78.859 22.874C83.4538 23.8747 86.5927 26.6497 86.5927 31.5174C86.5927 37.7044 81.9523 41.3894 75.3105 41.3894C67.8497 41.3894 63.7097 37.3405 63.2549 31.0626Z" fill="white"/>
<path d="M106.304 29.5211C106.304 24.9254 103.493 22.2485 100.057 22.2485C96.6216 22.2485 93.8108 24.9254 93.8108 29.5211C93.8108 34.1167 96.6216 36.7936 100.057 36.7936C103.493 36.7936 106.304 34.1167 106.304 29.5211ZM106.125 50.0003V40.9432L106.482 36.9723H106.125C104.876 39.8276 102.243 41.3892 98.6741 41.3892C92.9184 41.3892 88.6353 36.7046 88.6353 29.5211C88.6353 22.3375 92.9184 17.6529 98.6741 17.6529C102.199 17.6529 104.698 19.3036 106.125 21.8915H106.482V18.099H111.212V50.0003H106.125Z" fill="white"/>
<path d="M114.989 31.8856V18.0988H120.076V31.4395C120.076 35.0534 121.816 36.7934 124.716 36.7934C128.285 36.7934 130.605 34.2503 130.605 30.2794V18.0988H135.692V40.943H130.962V36.2135H130.605C129.49 39.2475 127.036 41.389 123.243 41.389C117.8 41.389 114.989 37.909 114.989 31.8856Z" fill="white"/>
<path d="M153.384 31.7519V30.5473L148.253 30.9043C145.487 31.0827 144.237 32.109 144.237 34.1612C144.237 35.9015 145.665 37.1506 147.673 37.1506C151.287 37.1506 153.384 34.8304 153.384 31.7519ZM138.794 34.5627C138.794 30.2796 141.784 27.781 147.093 27.4685L153.384 27.067V25.2825C153.384 23.1409 151.822 21.847 149.056 21.847C146.513 21.847 144.996 23.1409 144.594 24.97H139.508C140.044 20.3298 143.881 17.6529 149.056 17.6529C154.901 17.6529 158.471 20.1515 158.471 24.97V40.9432H153.741V36.7046H153.384C152.313 39.5154 150.082 41.3892 145.799 41.3892C141.694 41.3892 138.794 38.623 138.794 34.5627Z" fill="white"/>
<path d="M162.256 40.9426V18.0984H166.986V22.4711H167.343C168.012 19.4817 170.287 18.0984 173.678 18.0984H175.998V22.694H173.098C169.797 22.694 167.343 24.8359 167.343 28.8961V40.9426H162.256Z" fill="white"/>
<path d="M194.415 26.9329C194.236 23.7651 191.604 21.6235 188.391 21.6235C185.357 21.6235 182.814 23.5419 182.189 26.9329H194.415ZM199.278 30.4577H181.922C182.189 34.6518 185.134 37.0165 188.391 37.0165C191.157 37.0165 192.898 35.9009 193.879 34.0271H198.921C197.538 38.6672 193.478 41.389 188.347 41.389C181.609 41.389 176.88 36.3473 176.88 29.5208C176.88 22.6943 181.743 17.6523 188.391 17.6523C195.084 17.6523 199.456 22.248 199.456 27.9592C199.456 29.0745 199.367 29.6546 199.278 30.4577Z" fill="white"/>
</svg>
