<svg width="117" height="119" viewBox="0 0 117 119" fill="none" xmlns="http://www.w3.org/2000/svg">
<path d="M109.315 48.696C110.641 44.6891 111.1 40.4443 110.66 36.2454C110.221 32.0464 108.893 27.9898 106.766 24.3467C103.613 18.8401 98.7981 14.4804 93.0159 11.8962C87.2338 9.3119 80.783 8.63658 74.5937 9.96759C71.0773 6.04339 66.5937 3.11653 61.5931 1.48099C56.5925 -0.154559 51.251 -0.441216 46.105 0.649808C40.9591 1.74083 36.1898 4.17112 32.2763 7.6966C28.3628 11.2221 25.4428 15.7186 23.8096 20.7346C19.6862 21.5829 15.7908 23.3044 12.3836 25.7841C8.97647 28.2638 6.13611 31.4445 4.05235 35.1137C0.864839 40.6111 -0.497485 46.9831 0.162341 53.3084C0.822167 59.6338 3.46995 65.5847 7.72289 70.3009C6.39179 74.3059 5.92851 78.5499 6.36404 82.749C6.79957 86.9481 8.12386 91.0055 10.2483 94.6497C13.4056 100.158 18.2246 104.519 24.0108 107.103C29.797 109.688 36.2517 110.362 42.4445 109.029C45.2381 112.186 48.6707 114.708 52.5132 116.427C56.3556 118.146 60.5195 119.023 64.7267 119C71.0706 119.005 77.2523 116.989 82.3794 113.24C87.5065 109.492 91.3138 104.206 93.2518 98.1458C97.3747 97.296 101.27 95.5739 104.677 93.0942C108.083 90.6146 110.924 87.4345 113.009 83.7662C116.159 78.2769 117.498 71.9288 116.834 65.6299C116.171 59.331 113.539 53.4035 109.315 48.696ZM64.7267 111.211C59.5311 111.219 54.4984 109.392 50.5111 106.05L51.2123 105.652L74.8274 91.9757C75.4152 91.6299 75.9032 91.1366 76.2434 90.5443C76.5837 89.9521 76.7645 89.2812 76.7682 88.5976V55.1939L86.7514 60.9882C86.8007 61.0133 86.8434 61.0497 86.8761 61.0945C86.9087 61.1393 86.9303 61.1912 86.9392 61.246V88.9263C86.9266 94.8328 84.5824 100.494 80.4194 104.67C76.2564 108.847 70.6139 111.199 64.7267 111.211ZM16.982 90.756C14.3764 86.242 13.4408 80.9508 14.3399 75.8131L15.0417 76.2355L38.68 89.9115C39.2649 90.2559 39.9308 90.4374 40.609 90.4374C41.2871 90.4374 41.953 90.2559 42.5379 89.9115L71.4139 73.2095V84.7742C71.4112 84.8342 71.395 84.8927 71.3666 84.9455C71.3382 84.9983 71.2983 85.044 71.2498 85.0792L47.3308 98.9193C42.2262 101.87 36.1632 102.667 30.4731 101.136C24.7831 99.6059 19.9309 95.8725 16.982 90.756ZM10.7628 39.1488C13.3865 34.6058 17.5278 31.1407 22.4535 29.367V57.5164C22.4446 58.1964 22.6178 58.8664 22.955 59.4564C23.2922 60.0464 23.781 60.5348 24.3705 60.8707L53.1062 77.5024L43.1225 83.2962C43.0685 83.3249 43.0083 83.34 42.9471 83.34C42.8859 83.34 42.8257 83.3249 42.7716 83.2962L18.8996 69.4798C13.8045 66.5168 10.0875 61.6488 8.56239 55.942C7.03733 50.2352 7.82856 44.1545 10.7628 39.0318V39.1488ZM92.7842 58.2671L63.9552 41.4713L73.9156 35.6998C73.9696 35.671 74.0299 35.6559 74.0911 35.6559C74.1522 35.6559 74.2125 35.671 74.2665 35.6998L98.1386 49.5399C101.789 51.6529 104.764 54.7641 106.718 58.5101C108.672 62.2561 109.523 66.4824 109.172 70.6956C108.822 74.9088 107.284 78.935 104.738 82.3042C102.192 85.6734 98.7439 88.2465 94.7952 89.7231V61.5738C94.7745 60.8949 94.5782 60.233 94.2256 59.6532C93.8729 59.0734 93.3766 58.596 92.7842 58.2671ZM102.721 43.2776L102.02 42.8551L78.4283 29.0621C77.8398 28.7156 77.1698 28.5329 76.4875 28.5329C75.8052 28.5329 75.1352 28.7156 74.5467 29.0621L45.6949 45.7637V34.1994C45.6888 34.1406 45.6986 34.0812 45.7233 34.0275C45.748 33.9739 45.7867 33.9279 45.8353 33.8944L69.7074 20.0776C73.3661 17.963 77.5493 16.9372 81.7678 17.1202C85.9863 17.3033 90.0656 18.6876 93.5287 21.1113C96.9918 23.535 99.6954 26.8979 101.323 30.8066C102.951 34.7153 103.437 39.0082 102.722 43.1834L102.721 43.2776ZM40.2462 63.7787L30.2631 58.0082C30.2131 57.9781 30.1704 57.9372 30.1379 57.8887C30.1055 57.8401 30.0841 57.7849 30.0753 57.7271V30.1177C30.0807 25.8822 31.288 21.7357 33.5558 18.1632C35.8236 14.5906 39.0582 11.7396 42.8816 9.94348C46.7049 8.14734 50.9589 7.4803 55.1461 8.02035C59.3334 8.5604 63.2809 10.2852 66.5271 12.9932L65.8253 13.3923L42.2107 27.0673C41.623 27.4132 41.135 27.9065 40.7947 28.4987C40.4545 29.091 40.2736 29.7618 40.2699 30.4454L40.2462 63.7787ZM45.6707 52.0503L58.5302 44.6138L71.4139 52.0503V66.9223L58.5771 74.3583L45.6944 66.9223L45.6707 52.0503Z" fill="white"/>
</svg>
