<svg width="211" height="40" viewBox="0 0 211 40" fill="none" xmlns="http://www.w3.org/2000/svg">
<path d="M190.981 29.757C188.639 29.757 187.642 27.5621 187.642 24.0155C187.644 19.3405 188.709 10.202 193.897 10.202C196.239 10.202 197.021 12.3274 197.021 15.4448C197.021 20.1194 195.884 29.757 190.981 29.757ZM195.388 0.14C180.679 0.14 174.285 11.4084 174.285 23.4511C174.285 32.5901 177.979 39.8883 189.136 39.8883C204.2 39.8883 210.525 27.5617 210.525 15.6586C210.525 6.6597 206.474 0.14 195.388 0.14ZM161.764 0.14C156.864 0.14 153.309 1.63083 149.544 4.32045C148.191 1.91128 145.493 0.14 141.371 0.141504C136.61 0.141504 133.059 2.05669 130.43 3.96722L130.075 0.779248H118.774L112.736 38.9671H125.95L130.145 12.1877C131.281 11.6194 132.984 10.8408 134.691 10.8408C135.968 10.8408 137.035 11.2656 137.035 13.1805C137.035 13.6743 136.894 14.4528 136.825 15.091L133.059 38.9666H146.204L150.395 12.1874C151.605 11.5489 153.238 10.8405 154.87 10.8405C156.152 10.8405 157.219 11.2651 157.219 13.1802C157.219 13.674 157.073 14.4525 157.004 15.0907L153.238 38.9662H166.385L170.432 13.4597C170.647 12.1168 170.862 10.062 170.862 8.64511C170.862 3.5418 168.515 0.14 161.764 0.14ZM101.493 0.140752C96.4508 0.140752 92.8969 2.05594 90.1978 3.82692L90.0528 0.778797H78.6124L72.5732 38.9666H85.7918L89.9827 12.1874C91.1196 11.6189 92.8263 10.8405 94.529 10.8405C95.811 10.8405 96.8773 11.2648 96.8773 12.9656C96.8773 13.674 96.6621 14.9507 96.5919 15.5848L92.8969 38.9662H106.041L110.092 13.4597C110.307 12.1168 110.522 10.062 110.522 8.64511C110.522 3.5418 108.174 0.14 101.493 0.140752ZM52.0988 16.2226C52.4547 11.9725 55.7197 8.99925 58.2078 8.99925C59.6299 8.99925 60.8366 9.84767 60.8366 11.5484C60.8366 15.0902 54.583 16.2226 52.0988 16.2226ZM59.4888 0.14C45.4197 0.13985 38.5954 12.3274 38.5954 23.8053C38.5952 32.6609 42.7904 39.7447 54.5123 39.7447C59.1333 39.7447 63.8942 38.7525 66.9491 37.2651L68.5821 26.2147C64.2465 28.4104 60.9107 29.2588 57.4267 29.2588C54.2273 29.2588 51.8141 27.562 51.8141 23.2371C59.0634 23.1671 71.5666 20.1932 71.566 10.4859C71.566 4.46436 67.2346 0.14 59.4888 0.14ZM22.3105 2.47955C23.0919 4.11053 23.5919 6.09128 23.5919 8.99925C23.5917 14.312 19.8223 22.1045 16.7679 27.063L13.499 0.848271L0 2.12541L6.18267 38.9665H21.5994C28.3491 30.1111 36.6656 17.5001 36.6658 7.79233C36.6658 4.74872 36.0249 2.33925 34.6035 0L22.3105 2.47955Z" fill="#008CFF"/>
</svg>
